<svg xmlns="http://www.w3.org/2000/svg" xmlns:xlink="http://www.w3.org/1999/xlink" viewBox="0 0 402.167 402.167"><g fill-opacity=".288" transform="matrix(13.92544 0 0 13.92544 -133.323 -133.334)"><path d="M10.969 10.594a.402.402 0 0 0-.288.17.394.394 0 0 0-.056.33l.688 2.406 4.75 21.125-.438 2.312a.397.397 0 0 0 .375.468h6.906a.4.4 0 0 0 .375-.5l-.438-2.219 1.188-4.531L25.5 34.75l-.656 2.125a.398.398 0 0 0 .375.531l7.781.032a.397.397 0 0 0 .375-.531l-.906-2.438L36.031 14l1.344-2.844a.398.398 0 0 0-.343-.563H30.25a.398.398 0 0 0-.406.469l.406 2.312-2.344 13.219-3.656-14.124a.398.398 0 0 0-.75 0L19.969 26.5l-2.938-13.125.375-2.312a.398.398 0 0 0-.125-.344.394.394 0 0 0-.281-.125h-6a.16.16 0 0 0-.031 0z" xlink:href="#a"/><path d="M10.844 10.281a.725.725 0 0 0-.531.906L11 13.562h-.031l4.75 21.062-.438 2.25a.729.729 0 0 0 .719.844h6.906a.73.73 0 0 0 .719-.875l-.438-2.125.875-3.344 1.094 3.375-.625 2.031a.734.734 0 0 0 .111.64.726.726 0 0 0 .576.298L33 37.75a.73.73 0 0 0 .688-.969l-.875-2.375 3.531-20.25 1.344-2.844a.731.731 0 0 0-.656-1.031H30.25a.729.729 0 0 0-.719.843l.375 2.25L27.875 25l-3.281-12.625a.73.73 0 0 0-1.438 0L19.969 25l-2.594-11.719.344-2.156a.727.727 0 0 0-.719-.843h-6a.74.74 0 0 0-.156-.001z" xlink:href="#a"/><path d="M10.781 9.969A1.038 1.038 0 0 0 10 11.282l.688 2.344v.062l4.719 20.875-.438 2.25c-.053.304.031.615.23.852.199.234.493.369.801.367h6.906a1.04 1.04 0 0 0 1.031-1.25l-.437-2.126.594-2.188.719 2.281-.594 1.938a1.04 1.04 0 0 0 1 1.344l7.781.031a1.04 1.04 0 0 0 .969-1.375l-.844-2.281 3.531-20.188 1.312-2.781a1.039 1.039 0 0 0-.937-1.469H30.25a1.037 1.037 0 0 0-1.031 1.219l.375 2.188-1.812 10.188-2.906-11.25a1.039 1.039 0 0 0-2 0L20 23.75l-2.312-10.406.344-2.188A1.036 1.036 0 0 0 17 9.969h-6a1.002 1.002 0 0 0-.219 0z" xlink:href="#a"/><path d="M10.844 9.594a1.414 1.414 0 0 0-1.219 1.781l.688 2.344v.062l4.719 20.844-.406 2.094a1.413 1.413 0 0 0 1.375 1.687h6.906c.459.002.89-.221 1.156-.594.266.373.697.596 1.156.594l7.781.032a1.409 1.409 0 0 0 1.151-.612c.26-.38.321-.862.161-1.294l-.781-2.156 3.469-20 1.312-2.75c.213-.44.184-.958-.076-1.372a1.418 1.418 0 0 0-1.205-.66H30.25a1.414 1.414 0 0 0-1.406 1.656l.375 2.125-1.5 8.406-2.469-9.562a1.413 1.413 0 0 0-2.75 0l-2.469 9.844-1.969-8.75.344-2.094A1.413 1.413 0 0 0 17 9.594h-6a1.353 1.353 0 0 0-.156 0zm13.281 24.25l.312.938-.344 1.062-.219-1.062z" xlink:href="#a"/><path id="a" d="M10.992 11l.711 2.398 4.766 21.203L16 37.008h6.914l-.477-2.32 1.57-5.953 1.891 6.031-.672 2.242 7.789.016-.957-2.543 3.58-20.532 1.392-2.953-6.78.004.393 2.386-2.646 15.083-4.121-15.906-3.938 15.625-3.312-14.875L17 11z"/></g><g transform="matrix(13.92544 0 0 13.92544 -133.323 -133.334)"><linearGradient id="b" x1="-2217.366" x2="-2211.935" y1="406.207" y2="381.964" gradientTransform="matrix(1 0 0 -1 2229.395 417.36)" gradientUnits="userSpaceOnUse"><stop offset="0" stop-color="#da940f"/><stop offset=".235" stop-color="#efd11a"/><stop offset=".75" stop-color="#efd11a"/><stop offset=".908" stop-color="#efd11a"/><stop offset="1" stop-color="#d3900e"/></linearGradient><path fill="url(#b)" d="M11 11l3.379 2.496 4.523 21.035-2.906 2.477.473-2.414-4.75-21.188z"/><path fill="#792100" d="M18.906 34.531l-2.91 2.477L22.922 37l-2.672-2.453z"/><linearGradient id="c" x1="-2213.959" x2="-2209.15" y1="406.279" y2="383.423" gradientTransform="matrix(1 0 0 -1 2229.395 417.36)" gradientUnits="userSpaceOnUse"><stop offset="0" stop-color="#c63000"/><stop offset=".491" stop-color="#db9000"/><stop offset=".8" stop-color="#db9000"/><stop offset="1" stop-color="#c43b00"/></linearGradient><path fill="url(#c)" d="M16.984 11.023l-2.602 2.48 4.523 21.027 1.332.012L19.969 28 16.75 13.406z"/><linearGradient id="d" x1="-2204.471" x2="-2208.002" y1="395.465" y2="380.777" gradientTransform="matrix(1 0 0 -1 2229.395 417.36)" gradientUnits="userSpaceOnUse"><stop offset="0" stop-color="#ad2f00"/><stop offset="1" stop-color="#cb7500"/></linearGradient><path fill="url(#d)" d="M22.918 37.008l-2.664-2.457 3.738-14.363.016 8.539-1.57 5.961z"/><linearGradient id="e" x1="-2204.523" x2="-2209.561" y1="402.445" y2="386.977" gradientTransform="matrix(1 0 0 -1 2229.395 417.36)" gradientUnits="userSpaceOnUse"><stop offset="0" stop-color="#ecd500"/><stop offset=".869" stop-color="#ecd500"/><stop offset="1" stop-color="#ffef57"/></linearGradient><path fill="url(#e)" d="M23.875 12.531L24 20.125l-3.754 14.434L20 28.062z"/><linearGradient id="f" x1="-2215.457" x2="-2214.22" y1="406.482" y2="403.821" gradientTransform="matrix(1 0 0 -1 2229.395 417.36)" gradientUnits="userSpaceOnUse"><stop offset="0" stop-color="#ffd511"/><stop offset="1" stop-color="#fdf8dc"/></linearGradient><path fill="url(#f)" d="M10.992 11l3.391 2.5L17 11.008z"/><linearGradient id="g" x1="-2206.382" x2="-2200.552" y1="402.905" y2="382.791" gradientTransform="matrix(1 0 0 -1 2229.395 417.36)" gradientUnits="userSpaceOnUse"><stop offset="0" stop-color="#bd3300"/><stop offset=".188" stop-color="#bd3300"/><stop offset=".411" stop-color="#cb8500"/><stop offset="1" stop-color="#c26f00"/></linearGradient><path fill="url(#g)" d="M23.867 12.547l.125 7.633 3.441 14.381 2.146.011z"/><linearGradient id="h" x1="-2206.619" x2="-2202.744" y1="395.106" y2="381.731" gradientTransform="matrix(1 0 0 -1 2229.395 417.36)" gradientUnits="userSpaceOnUse"><stop offset="0" stop-color="#ffd303"/><stop offset=".902" stop-color="#ffd303"/><stop offset="1" stop-color="#d27e00"/></linearGradient><path fill="url(#h)" d="M23.992 20.188l.016 8.523 1.896 6.051-.672 2.236 2.221-2.428z"/><path fill="#792100" d="M29.57 34.559l-2.109.008-2.244 2.441 7.793.014z"/><linearGradient id="i" x1="-2193.924" x2="-2198.285" y1="406.828" y2="380.502" gradientTransform="matrix(1 0 0 -1 2229.395 417.36)" gradientUnits="userSpaceOnUse"><stop offset="0" stop-color="#a51f00"/><stop offset=".288" stop-color="#c67200"/><stop offset=".644" stop-color="#c67200"/><stop offset="1" stop-color="#c25500"/></linearGradient><path fill="url(#i)" d="M35.631 13.916l1.393-2.899-3.752 2.122-3.717 21.426 3.463 2.464-.959-2.546z"/><linearGradient id="j" x1="-2197.301" x2="-2201.676" y1="406.261" y2="382.991" gradientTransform="matrix(1 0 0 -1 2229.395 417.36)" gradientUnits="userSpaceOnUse"><stop offset="0" stop-color="#cd7c00"/><stop offset=".314" stop-color="#eed700"/><stop offset="1" stop-color="#eed700"/></linearGradient><path fill="url(#j)" d="M30.643 13.375l-.404-2.352 3.037 2.102-3.721 21.418-1.561-6.078z"/><linearGradient id="k" x1="-2195.818" x2="-2194.669" y1="406.477" y2="404.198" gradientTransform="matrix(1 0 0 -1 2229.395 417.36)" gradientUnits="userSpaceOnUse"><stop offset="0" stop-color="#ffd511"/><stop offset="1" stop-color="#fdf8dc"/></linearGradient><path fill="url(#k)" d="M30.235 11.016l3.022 2.132 3.783-2.145z"/></g></svg>